<mxfile host="65bd71144e">
    <diagram id="QSzUvUboAM3OmK3DOX5l" name="DB">
        <mxGraphModel dx="872" dy="1427" grid="1" gridSize="10" guides="1" tooltips="1" connect="1" arrows="1" fold="1" page="1" pageScale="1" pageWidth="827" pageHeight="1169" math="0" shadow="0">
            <root>
                <mxCell id="0"/>
                <mxCell id="1" parent="0"/>
                <mxCell id="78" style="edgeStyle=none;html=1;exitX=0.15;exitY=0.95;exitDx=0;exitDy=0;exitPerimeter=0;fontSize=10;entryX=0.5;entryY=0;entryDx=0;entryDy=0;" edge="1" parent="1" source="2" target="11">
                    <mxGeometry relative="1" as="geometry">
                        <mxPoint x="209" y="582" as="targetPoint"/>
                        <Array as="points">
                            <mxPoint x="383" y="542"/>
                            <mxPoint x="154" y="542"/>
                        </Array>
                    </mxGeometry>
                </mxCell>
                <mxCell id="81" style="edgeStyle=none;html=1;exitX=0.5;exitY=1;exitDx=0;exitDy=0;entryX=0.5;entryY=0;entryDx=0;entryDy=0;fontSize=10;" edge="1" parent="1" source="2" target="21">
                    <mxGeometry relative="1" as="geometry"/>
                </mxCell>
                <mxCell id="82" style="edgeStyle=none;html=1;exitX=0.85;exitY=0.95;exitDx=0;exitDy=0;exitPerimeter=0;entryX=0.5;entryY=0;entryDx=0;entryDy=0;fontSize=10;" edge="1" parent="1" source="2" target="31">
                    <mxGeometry relative="1" as="geometry">
                        <Array as="points">
                            <mxPoint x="443" y="542"/>
                            <mxPoint x="684" y="542"/>
                        </Array>
                    </mxGeometry>
                </mxCell>
                <mxCell id="2" value="AUTOMACAO" style="shape=datastore;whiteSpace=wrap;html=1;" vertex="1" parent="1">
                    <mxGeometry x="370" y="372" width="86" height="80" as="geometry"/>
                </mxCell>
                <mxCell id="7" value="" style="edgeStyle=none;html=1;exitX=1;exitY=0.5;exitDx=0;exitDy=0;" edge="1" parent="1" source="4" target="6">
                    <mxGeometry relative="1" as="geometry">
                        <mxPoint x="149" y="282" as="sourcePoint"/>
                    </mxGeometry>
                </mxCell>
                <mxCell id="4" value="sqlAlchemy" style="rhombus;whiteSpace=wrap;html=1;" vertex="1" parent="1">
                    <mxGeometry x="79" y="242" width="80" height="80" as="geometry"/>
                </mxCell>
                <mxCell id="9" value="" style="edgeStyle=none;html=1;" edge="1" parent="1" source="6" target="8">
                    <mxGeometry relative="1" as="geometry"/>
                </mxCell>
                <mxCell id="6" value="pyodbc" style="whiteSpace=wrap;html=1;" vertex="1" parent="1">
                    <mxGeometry x="219" y="262" width="71" height="40" as="geometry"/>
                </mxCell>
                <mxCell id="10" style="edgeStyle=none;html=1;exitX=0.5;exitY=1;exitDx=0;exitDy=0;entryX=0.5;entryY=0;entryDx=0;entryDy=0;" edge="1" parent="1" source="8" target="2">
                    <mxGeometry relative="1" as="geometry"/>
                </mxCell>
                <mxCell id="8" value="ODBC driver 17&lt;br&gt;for SQL Server" style="whiteSpace=wrap;html=1;" vertex="1" parent="1">
                    <mxGeometry x="353" y="252" width="120" height="60" as="geometry"/>
                </mxCell>
                <mxCell id="11" value="maquina_ocorrencias" style="shape=table;startSize=30;container=1;collapsible=0;childLayout=tableLayout;fixedRows=1;rowLines=0;fontStyle=1;" vertex="1" parent="1">
                    <mxGeometry x="39" y="627" width="230" height="240" as="geometry"/>
                </mxCell>
                <mxCell id="12" value="" style="shape=tableRow;horizontal=0;startSize=0;swimlaneHead=0;swimlaneBody=0;top=0;left=0;bottom=0;right=0;collapsible=0;dropTarget=0;fillColor=none;points=[[0,0.5],[1,0.5]];portConstraint=eastwest;" vertex="1" parent="11">
                    <mxGeometry y="30" width="230" height="30" as="geometry"/>
                </mxCell>
                <mxCell id="13" value="&lt;span style=&quot;color: rgb(204, 202, 194); font-family: &amp;quot;Cascadia Code&amp;quot;, &amp;quot;Fira Code&amp;quot;, &amp;quot;Hack Nerd Font Mono&amp;quot;; font-size: 14px;&quot;&gt;maquina_id     &lt;/span&gt;" style="shape=partialRectangle;html=1;whiteSpace=wrap;connectable=0;fillColor=none;top=0;left=0;bottom=0;right=0;overflow=hidden;pointerEvents=1;align=left;" vertex="1" parent="12">
                    <mxGeometry width="130" height="30" as="geometry">
                        <mxRectangle width="130" height="30" as="alternateBounds"/>
                    </mxGeometry>
                </mxCell>
                <mxCell id="14" value="string" style="shape=partialRectangle;html=1;whiteSpace=wrap;connectable=0;fillColor=none;top=0;left=0;bottom=0;right=0;align=left;spacingLeft=6;overflow=hidden;" vertex="1" parent="12">
                    <mxGeometry x="130" width="100" height="30" as="geometry">
                        <mxRectangle width="100" height="30" as="alternateBounds"/>
                    </mxGeometry>
                </mxCell>
                <mxCell id="15" value="" style="shape=tableRow;horizontal=0;startSize=0;swimlaneHead=0;swimlaneBody=0;top=0;left=0;bottom=0;right=0;collapsible=0;dropTarget=0;fillColor=none;points=[[0,0.5],[1,0.5]];portConstraint=eastwest;" vertex="1" parent="11">
                    <mxGeometry y="60" width="230" height="30" as="geometry"/>
                </mxCell>
                <mxCell id="16" value="&lt;span style=&quot;color: rgb(204, 202, 194); font-family: &amp;quot;Cascadia Code&amp;quot;, &amp;quot;Fira Code&amp;quot;, &amp;quot;Hack Nerd Font Mono&amp;quot;; font-size: 14px;&quot;&gt;motivo_id      &lt;/span&gt;" style="shape=partialRectangle;html=1;whiteSpace=wrap;connectable=0;fillColor=none;top=0;left=0;bottom=0;right=0;overflow=hidden;align=left;" vertex="1" parent="15">
                    <mxGeometry width="130" height="30" as="geometry">
                        <mxRectangle width="130" height="30" as="alternateBounds"/>
                    </mxGeometry>
                </mxCell>
                <mxCell id="17" value="string" style="shape=partialRectangle;html=1;whiteSpace=wrap;connectable=0;fillColor=none;top=0;left=0;bottom=0;right=0;align=left;spacingLeft=6;overflow=hidden;" vertex="1" parent="15">
                    <mxGeometry x="130" width="100" height="30" as="geometry">
                        <mxRectangle width="100" height="30" as="alternateBounds"/>
                    </mxGeometry>
                </mxCell>
                <mxCell id="18" value="" style="shape=tableRow;horizontal=0;startSize=0;swimlaneHead=0;swimlaneBody=0;top=0;left=0;bottom=0;right=0;collapsible=0;dropTarget=0;fillColor=none;points=[[0,0.5],[1,0.5]];portConstraint=eastwest;" vertex="1" parent="11">
                    <mxGeometry y="90" width="230" height="30" as="geometry"/>
                </mxCell>
                <mxCell id="19" value="&lt;span style=&quot;color: rgb(204, 202, 194); font-family: &amp;quot;Cascadia Code&amp;quot;, &amp;quot;Fira Code&amp;quot;, &amp;quot;Hack Nerd Font Mono&amp;quot;; font-size: 14px;&quot;&gt;problema&lt;/span&gt;" style="shape=partialRectangle;html=1;whiteSpace=wrap;connectable=0;fillColor=none;top=0;left=0;bottom=0;right=0;overflow=hidden;align=left;" vertex="1" parent="18">
                    <mxGeometry width="130" height="30" as="geometry">
                        <mxRectangle width="130" height="30" as="alternateBounds"/>
                    </mxGeometry>
                </mxCell>
                <mxCell id="20" value="string" style="shape=partialRectangle;html=1;whiteSpace=wrap;connectable=0;fillColor=none;top=0;left=0;bottom=0;right=0;align=left;spacingLeft=6;overflow=hidden;" vertex="1" parent="18">
                    <mxGeometry x="130" width="100" height="30" as="geometry">
                        <mxRectangle width="100" height="30" as="alternateBounds"/>
                    </mxGeometry>
                </mxCell>
                <mxCell id="43" style="shape=tableRow;horizontal=0;startSize=0;swimlaneHead=0;swimlaneBody=0;top=0;left=0;bottom=0;right=0;collapsible=0;dropTarget=0;fillColor=none;points=[[0,0.5],[1,0.5]];portConstraint=eastwest;" vertex="1" parent="11">
                    <mxGeometry y="120" width="230" height="30" as="geometry"/>
                </mxCell>
                <mxCell id="44" value="&lt;span style=&quot;color: rgb(204, 202, 194); font-family: &amp;quot;Cascadia Code&amp;quot;, &amp;quot;Fira Code&amp;quot;, &amp;quot;Hack Nerd Font Mono&amp;quot;; font-size: 14px;&quot;&gt;solucao        &lt;/span&gt;" style="shape=partialRectangle;html=1;whiteSpace=wrap;connectable=0;fillColor=none;top=0;left=0;bottom=0;right=0;overflow=hidden;align=left;" vertex="1" parent="43">
                    <mxGeometry width="130" height="30" as="geometry">
                        <mxRectangle width="130" height="30" as="alternateBounds"/>
                    </mxGeometry>
                </mxCell>
                <mxCell id="45" value="string" style="shape=partialRectangle;html=1;whiteSpace=wrap;connectable=0;fillColor=none;top=0;left=0;bottom=0;right=0;align=left;spacingLeft=6;overflow=hidden;" vertex="1" parent="43">
                    <mxGeometry x="130" width="100" height="30" as="geometry">
                        <mxRectangle width="100" height="30" as="alternateBounds"/>
                    </mxGeometry>
                </mxCell>
                <mxCell id="52" style="shape=tableRow;horizontal=0;startSize=0;swimlaneHead=0;swimlaneBody=0;top=0;left=0;bottom=0;right=0;collapsible=0;dropTarget=0;fillColor=none;points=[[0,0.5],[1,0.5]];portConstraint=eastwest;" vertex="1" parent="11">
                    <mxGeometry y="150" width="230" height="30" as="geometry"/>
                </mxCell>
                <mxCell id="53" value="&lt;span style=&quot;color: rgb(204, 202, 194); font-family: &amp;quot;Cascadia Code&amp;quot;, &amp;quot;Fira Code&amp;quot;, &amp;quot;Hack Nerd Font Mono&amp;quot;; font-size: 14px;&quot;&gt;data_registro  &lt;/span&gt;" style="shape=partialRectangle;html=1;whiteSpace=wrap;connectable=0;fillColor=none;top=0;left=0;bottom=0;right=0;overflow=hidden;align=left;" vertex="1" parent="52">
                    <mxGeometry width="130" height="30" as="geometry">
                        <mxRectangle width="130" height="30" as="alternateBounds"/>
                    </mxGeometry>
                </mxCell>
                <mxCell id="54" value="string" style="shape=partialRectangle;html=1;whiteSpace=wrap;connectable=0;fillColor=none;top=0;left=0;bottom=0;right=0;align=left;spacingLeft=6;overflow=hidden;" vertex="1" parent="52">
                    <mxGeometry x="130" width="100" height="30" as="geometry">
                        <mxRectangle width="100" height="30" as="alternateBounds"/>
                    </mxGeometry>
                </mxCell>
                <mxCell id="49" style="shape=tableRow;horizontal=0;startSize=0;swimlaneHead=0;swimlaneBody=0;top=0;left=0;bottom=0;right=0;collapsible=0;dropTarget=0;fillColor=none;points=[[0,0.5],[1,0.5]];portConstraint=eastwest;" vertex="1" parent="11">
                    <mxGeometry y="180" width="230" height="30" as="geometry"/>
                </mxCell>
                <mxCell id="50" value="&lt;span style=&quot;color: rgb(204, 202, 194); font-family: &amp;quot;Cascadia Code&amp;quot;, &amp;quot;Fira Code&amp;quot;, &amp;quot;Hack Nerd Font Mono&amp;quot;; font-size: 14px;&quot;&gt;hora_registro  &lt;/span&gt;" style="shape=partialRectangle;html=1;whiteSpace=wrap;connectable=0;fillColor=none;top=0;left=0;bottom=0;right=0;overflow=hidden;align=left;" vertex="1" parent="49">
                    <mxGeometry width="130" height="30" as="geometry">
                        <mxRectangle width="130" height="30" as="alternateBounds"/>
                    </mxGeometry>
                </mxCell>
                <mxCell id="51" value="string" style="shape=partialRectangle;html=1;whiteSpace=wrap;connectable=0;fillColor=none;top=0;left=0;bottom=0;right=0;align=left;spacingLeft=6;overflow=hidden;" vertex="1" parent="49">
                    <mxGeometry x="130" width="100" height="30" as="geometry">
                        <mxRectangle width="100" height="30" as="alternateBounds"/>
                    </mxGeometry>
                </mxCell>
                <mxCell id="46" style="shape=tableRow;horizontal=0;startSize=0;swimlaneHead=0;swimlaneBody=0;top=0;left=0;bottom=0;right=0;collapsible=0;dropTarget=0;fillColor=none;points=[[0,0.5],[1,0.5]];portConstraint=eastwest;" vertex="1" parent="11">
                    <mxGeometry y="210" width="230" height="30" as="geometry"/>
                </mxCell>
                <mxCell id="47" value="&lt;span style=&quot;color: rgb(204, 202, 194); font-family: &amp;quot;Cascadia Code&amp;quot;, &amp;quot;Fira Code&amp;quot;, &amp;quot;Hack Nerd Font Mono&amp;quot;; font-size: 14px;&quot;&gt;usuario_id     &lt;/span&gt;" style="shape=partialRectangle;html=1;whiteSpace=wrap;connectable=0;fillColor=none;top=0;left=0;bottom=0;right=0;overflow=hidden;align=left;" vertex="1" parent="46">
                    <mxGeometry width="130" height="30" as="geometry">
                        <mxRectangle width="130" height="30" as="alternateBounds"/>
                    </mxGeometry>
                </mxCell>
                <mxCell id="48" value="string" style="shape=partialRectangle;html=1;whiteSpace=wrap;connectable=0;fillColor=none;top=0;left=0;bottom=0;right=0;align=left;spacingLeft=6;overflow=hidden;" vertex="1" parent="46">
                    <mxGeometry x="130" width="100" height="30" as="geometry">
                        <mxRectangle width="100" height="30" as="alternateBounds"/>
                    </mxGeometry>
                </mxCell>
                <mxCell id="21" value="maquina_info + maquina_cadastro" style="shape=table;startSize=30;container=1;collapsible=0;childLayout=tableLayout;fixedRows=1;rowLines=0;fontStyle=1;" vertex="1" parent="1">
                    <mxGeometry x="293" y="627" width="240" height="300" as="geometry"/>
                </mxCell>
                <mxCell id="22" value="" style="shape=tableRow;horizontal=0;startSize=0;swimlaneHead=0;swimlaneBody=0;top=0;left=0;bottom=0;right=0;collapsible=0;dropTarget=0;fillColor=none;points=[[0,0.5],[1,0.5]];portConstraint=eastwest;" vertex="1" parent="21">
                    <mxGeometry y="30" width="240" height="30" as="geometry"/>
                </mxCell>
                <mxCell id="23" value="&lt;span style=&quot;color: rgb(204, 202, 194); font-family: &amp;quot;Cascadia Code&amp;quot;, &amp;quot;Fira Code&amp;quot;, &amp;quot;Hack Nerd Font Mono&amp;quot;; font-size: 14px;&quot;&gt;maquina_id                &lt;/span&gt;" style="shape=partialRectangle;html=1;whiteSpace=wrap;connectable=0;fillColor=none;top=0;left=0;bottom=0;right=0;overflow=hidden;pointerEvents=1;align=left;" vertex="1" parent="22">
                    <mxGeometry width="147" height="30" as="geometry">
                        <mxRectangle width="147" height="30" as="alternateBounds"/>
                    </mxGeometry>
                </mxCell>
                <mxCell id="24" value="string" style="shape=partialRectangle;html=1;whiteSpace=wrap;connectable=0;fillColor=none;top=0;left=0;bottom=0;right=0;align=left;spacingLeft=6;overflow=hidden;" vertex="1" parent="22">
                    <mxGeometry x="147" width="93" height="30" as="geometry">
                        <mxRectangle width="93" height="30" as="alternateBounds"/>
                    </mxGeometry>
                </mxCell>
                <mxCell id="25" value="" style="shape=tableRow;horizontal=0;startSize=0;swimlaneHead=0;swimlaneBody=0;top=0;left=0;bottom=0;right=0;collapsible=0;dropTarget=0;fillColor=none;points=[[0,0.5],[1,0.5]];portConstraint=eastwest;" vertex="1" parent="21">
                    <mxGeometry y="60" width="240" height="30" as="geometry"/>
                </mxCell>
                <mxCell id="26" value="&lt;span style=&quot;color: rgb(204, 202, 194); font-family: &amp;quot;Cascadia Code&amp;quot;, &amp;quot;Fira Code&amp;quot;, &amp;quot;Hack Nerd Font Mono&amp;quot;; font-size: 14px;&quot;&gt;linha                     &lt;/span&gt;" style="shape=partialRectangle;html=1;whiteSpace=wrap;connectable=0;fillColor=none;top=0;left=0;bottom=0;right=0;overflow=hidden;align=left;" vertex="1" parent="25">
                    <mxGeometry width="147" height="30" as="geometry">
                        <mxRectangle width="147" height="30" as="alternateBounds"/>
                    </mxGeometry>
                </mxCell>
                <mxCell id="27" value="int64" style="shape=partialRectangle;html=1;whiteSpace=wrap;connectable=0;fillColor=none;top=0;left=0;bottom=0;right=0;align=left;spacingLeft=6;overflow=hidden;" vertex="1" parent="25">
                    <mxGeometry x="147" width="93" height="30" as="geometry">
                        <mxRectangle width="93" height="30" as="alternateBounds"/>
                    </mxGeometry>
                </mxCell>
                <mxCell id="28" value="" style="shape=tableRow;horizontal=0;startSize=0;swimlaneHead=0;swimlaneBody=0;top=0;left=0;bottom=0;right=0;collapsible=0;dropTarget=0;fillColor=none;points=[[0,0.5],[1,0.5]];portConstraint=eastwest;" vertex="1" parent="21">
                    <mxGeometry y="90" width="240" height="30" as="geometry"/>
                </mxCell>
                <mxCell id="29" value="&lt;span style=&quot;color: rgb(204, 202, 194); font-family: &amp;quot;Cascadia Code&amp;quot;, &amp;quot;Fira Code&amp;quot;, &amp;quot;Hack Nerd Font Mono&amp;quot;; font-size: 14px;&quot;&gt;fabrica                   &lt;/span&gt;" style="shape=partialRectangle;html=1;whiteSpace=wrap;connectable=0;fillColor=none;top=0;left=0;bottom=0;right=0;overflow=hidden;align=left;" vertex="1" parent="28">
                    <mxGeometry width="147" height="30" as="geometry">
                        <mxRectangle width="147" height="30" as="alternateBounds"/>
                    </mxGeometry>
                </mxCell>
                <mxCell id="30" value="string" style="shape=partialRectangle;html=1;whiteSpace=wrap;connectable=0;fillColor=none;top=0;left=0;bottom=0;right=0;align=left;spacingLeft=6;overflow=hidden;" vertex="1" parent="28">
                    <mxGeometry x="147" width="93" height="30" as="geometry">
                        <mxRectangle width="93" height="30" as="alternateBounds"/>
                    </mxGeometry>
                </mxCell>
                <mxCell id="70" style="shape=tableRow;horizontal=0;startSize=0;swimlaneHead=0;swimlaneBody=0;top=0;left=0;bottom=0;right=0;collapsible=0;dropTarget=0;fillColor=none;points=[[0,0.5],[1,0.5]];portConstraint=eastwest;" vertex="1" parent="21">
                    <mxGeometry y="120" width="240" height="30" as="geometry"/>
                </mxCell>
                <mxCell id="71" value="&lt;span style=&quot;color: rgb(204, 202, 194); font-family: &amp;quot;Cascadia Code&amp;quot;, &amp;quot;Fira Code&amp;quot;, &amp;quot;Hack Nerd Font Mono&amp;quot;; font-size: 14px;&quot;&gt;status                    &lt;/span&gt;" style="shape=partialRectangle;html=1;whiteSpace=wrap;connectable=0;fillColor=none;top=0;left=0;bottom=0;right=0;overflow=hidden;align=left;" vertex="1" parent="70">
                    <mxGeometry width="147" height="30" as="geometry">
                        <mxRectangle width="147" height="30" as="alternateBounds"/>
                    </mxGeometry>
                </mxCell>
                <mxCell id="72" value="string" style="shape=partialRectangle;html=1;whiteSpace=wrap;connectable=0;fillColor=none;top=0;left=0;bottom=0;right=0;align=left;spacingLeft=6;overflow=hidden;" vertex="1" parent="70">
                    <mxGeometry x="147" width="93" height="30" as="geometry">
                        <mxRectangle width="93" height="30" as="alternateBounds"/>
                    </mxGeometry>
                </mxCell>
                <mxCell id="67" style="shape=tableRow;horizontal=0;startSize=0;swimlaneHead=0;swimlaneBody=0;top=0;left=0;bottom=0;right=0;collapsible=0;dropTarget=0;fillColor=none;points=[[0,0.5],[1,0.5]];portConstraint=eastwest;" vertex="1" parent="21">
                    <mxGeometry y="150" width="240" height="30" as="geometry"/>
                </mxCell>
                <mxCell id="68" value="&lt;span style=&quot;color: rgb(204, 202, 194); font-family: &amp;quot;Cascadia Code&amp;quot;, &amp;quot;Fira Code&amp;quot;, &amp;quot;Hack Nerd Font Mono&amp;quot;; font-size: 14px;&quot;&gt;turno                     &lt;/span&gt;" style="shape=partialRectangle;html=1;whiteSpace=wrap;connectable=0;fillColor=none;top=0;left=0;bottom=0;right=0;overflow=hidden;align=left;" vertex="1" parent="67">
                    <mxGeometry width="147" height="30" as="geometry">
                        <mxRectangle width="147" height="30" as="alternateBounds"/>
                    </mxGeometry>
                </mxCell>
                <mxCell id="69" value="string" style="shape=partialRectangle;html=1;whiteSpace=wrap;connectable=0;fillColor=none;top=0;left=0;bottom=0;right=0;align=left;spacingLeft=6;overflow=hidden;" vertex="1" parent="67">
                    <mxGeometry x="147" width="93" height="30" as="geometry">
                        <mxRectangle width="93" height="30" as="alternateBounds"/>
                    </mxGeometry>
                </mxCell>
                <mxCell id="64" style="shape=tableRow;horizontal=0;startSize=0;swimlaneHead=0;swimlaneBody=0;top=0;left=0;bottom=0;right=0;collapsible=0;dropTarget=0;fillColor=none;points=[[0,0.5],[1,0.5]];portConstraint=eastwest;" vertex="1" parent="21">
                    <mxGeometry y="180" width="240" height="30" as="geometry"/>
                </mxCell>
                <mxCell id="65" value="&lt;span style=&quot;color: rgb(204, 202, 194); font-family: &amp;quot;Cascadia Code&amp;quot;, &amp;quot;Fira Code&amp;quot;, &amp;quot;Hack Nerd Font Mono&amp;quot;; font-size: 11px;&quot;&gt;contagem_total_ciclos     &lt;/span&gt;" style="shape=partialRectangle;html=1;whiteSpace=wrap;connectable=0;fillColor=none;top=0;left=0;bottom=0;right=0;overflow=hidden;align=left;fontSize=11;" vertex="1" parent="64">
                    <mxGeometry width="147" height="30" as="geometry">
                        <mxRectangle width="147" height="30" as="alternateBounds"/>
                    </mxGeometry>
                </mxCell>
                <mxCell id="66" value="float64" style="shape=partialRectangle;html=1;whiteSpace=wrap;connectable=0;fillColor=none;top=0;left=0;bottom=0;right=0;align=left;spacingLeft=6;overflow=hidden;" vertex="1" parent="64">
                    <mxGeometry x="147" width="93" height="30" as="geometry">
                        <mxRectangle width="93" height="30" as="alternateBounds"/>
                    </mxGeometry>
                </mxCell>
                <mxCell id="61" style="shape=tableRow;horizontal=0;startSize=0;swimlaneHead=0;swimlaneBody=0;top=0;left=0;bottom=0;right=0;collapsible=0;dropTarget=0;fillColor=none;points=[[0,0.5],[1,0.5]];portConstraint=eastwest;" vertex="1" parent="21">
                    <mxGeometry y="210" width="240" height="30" as="geometry"/>
                </mxCell>
                <mxCell id="62" value="&lt;span style=&quot;color: rgb(204, 202, 194); font-family: &amp;quot;Cascadia Code&amp;quot;, &amp;quot;Fira Code&amp;quot;, &amp;quot;Hack Nerd Font Mono&amp;quot;; font-size: 10px;&quot;&gt;contagem_total_produzido  &lt;/span&gt;" style="shape=partialRectangle;html=1;whiteSpace=wrap;connectable=0;fillColor=none;top=0;left=0;bottom=0;right=0;overflow=hidden;align=left;fontSize=10;" vertex="1" parent="61">
                    <mxGeometry width="147" height="30" as="geometry">
                        <mxRectangle width="147" height="30" as="alternateBounds"/>
                    </mxGeometry>
                </mxCell>
                <mxCell id="63" value="float64" style="shape=partialRectangle;html=1;whiteSpace=wrap;connectable=0;fillColor=none;top=0;left=0;bottom=0;right=0;align=left;spacingLeft=6;overflow=hidden;" vertex="1" parent="61">
                    <mxGeometry x="147" width="93" height="30" as="geometry">
                        <mxRectangle width="93" height="30" as="alternateBounds"/>
                    </mxGeometry>
                </mxCell>
                <mxCell id="58" style="shape=tableRow;horizontal=0;startSize=0;swimlaneHead=0;swimlaneBody=0;top=0;left=0;bottom=0;right=0;collapsible=0;dropTarget=0;fillColor=none;points=[[0,0.5],[1,0.5]];portConstraint=eastwest;" vertex="1" parent="21">
                    <mxGeometry y="240" width="240" height="30" as="geometry"/>
                </mxCell>
                <mxCell id="59" value="&lt;span style=&quot;color: rgb(204, 202, 194); font-family: &amp;quot;Cascadia Code&amp;quot;, &amp;quot;Fira Code&amp;quot;, &amp;quot;Hack Nerd Font Mono&amp;quot;; font-size: 14px;&quot;&gt;data_registro             &lt;/span&gt;" style="shape=partialRectangle;html=1;whiteSpace=wrap;connectable=0;fillColor=none;top=0;left=0;bottom=0;right=0;overflow=hidden;align=left;" vertex="1" parent="58">
                    <mxGeometry width="147" height="30" as="geometry">
                        <mxRectangle width="147" height="30" as="alternateBounds"/>
                    </mxGeometry>
                </mxCell>
                <mxCell id="60" value="string" style="shape=partialRectangle;html=1;whiteSpace=wrap;connectable=0;fillColor=none;top=0;left=0;bottom=0;right=0;align=left;spacingLeft=6;overflow=hidden;" vertex="1" parent="58">
                    <mxGeometry x="147" width="93" height="30" as="geometry">
                        <mxRectangle width="93" height="30" as="alternateBounds"/>
                    </mxGeometry>
                </mxCell>
                <mxCell id="55" style="shape=tableRow;horizontal=0;startSize=0;swimlaneHead=0;swimlaneBody=0;top=0;left=0;bottom=0;right=0;collapsible=0;dropTarget=0;fillColor=none;points=[[0,0.5],[1,0.5]];portConstraint=eastwest;" vertex="1" parent="21">
                    <mxGeometry y="270" width="240" height="30" as="geometry"/>
                </mxCell>
                <mxCell id="56" value="&lt;span style=&quot;color: rgb(204, 202, 194); font-family: &amp;quot;Cascadia Code&amp;quot;, &amp;quot;Fira Code&amp;quot;, &amp;quot;Hack Nerd Font Mono&amp;quot;; font-size: 14px;&quot;&gt;hora_registro             &lt;/span&gt;" style="shape=partialRectangle;html=1;whiteSpace=wrap;connectable=0;fillColor=none;top=0;left=0;bottom=0;right=0;overflow=hidden;align=left;" vertex="1" parent="55">
                    <mxGeometry width="147" height="30" as="geometry">
                        <mxRectangle width="147" height="30" as="alternateBounds"/>
                    </mxGeometry>
                </mxCell>
                <mxCell id="57" value="string" style="shape=partialRectangle;html=1;whiteSpace=wrap;connectable=0;fillColor=none;top=0;left=0;bottom=0;right=0;align=left;spacingLeft=6;overflow=hidden;" vertex="1" parent="55">
                    <mxGeometry x="147" width="93" height="30" as="geometry">
                        <mxRectangle width="93" height="30" as="alternateBounds"/>
                    </mxGeometry>
                </mxCell>
                <mxCell id="31" value="maquina_info + maquina_cadastro" style="shape=table;startSize=30;container=1;collapsible=0;childLayout=tableLayout;fixedRows=1;rowLines=0;fontStyle=1;" vertex="1" parent="1">
                    <mxGeometry x="579" y="627" width="210" height="240" as="geometry"/>
                </mxCell>
                <mxCell id="32" value="" style="shape=tableRow;horizontal=0;startSize=0;swimlaneHead=0;swimlaneBody=0;top=0;left=0;bottom=0;right=0;collapsible=0;dropTarget=0;fillColor=none;points=[[0,0.5],[1,0.5]];portConstraint=eastwest;" vertex="1" parent="31">
                    <mxGeometry y="30" width="210" height="30" as="geometry"/>
                </mxCell>
                <mxCell id="33" value="&lt;span style=&quot;color: rgb(204, 202, 194); font-family: &amp;quot;Cascadia Code&amp;quot;, &amp;quot;Fira Code&amp;quot;, &amp;quot;Hack Nerd Font Mono&amp;quot;; font-size: 14px;&quot;&gt;maquina_id       &lt;/span&gt;" style="shape=partialRectangle;html=1;whiteSpace=wrap;connectable=0;fillColor=none;top=0;left=0;bottom=0;right=0;overflow=hidden;pointerEvents=1;align=left;" vertex="1" parent="32">
                    <mxGeometry width="128" height="30" as="geometry">
                        <mxRectangle width="128" height="30" as="alternateBounds"/>
                    </mxGeometry>
                </mxCell>
                <mxCell id="34" value="string" style="shape=partialRectangle;html=1;whiteSpace=wrap;connectable=0;fillColor=none;top=0;left=0;bottom=0;right=0;align=left;spacingLeft=6;overflow=hidden;" vertex="1" parent="32">
                    <mxGeometry x="128" width="82" height="30" as="geometry">
                        <mxRectangle width="82" height="30" as="alternateBounds"/>
                    </mxGeometry>
                </mxCell>
                <mxCell id="35" value="" style="shape=tableRow;horizontal=0;startSize=0;swimlaneHead=0;swimlaneBody=0;top=0;left=0;bottom=0;right=0;collapsible=0;dropTarget=0;fillColor=none;points=[[0,0.5],[1,0.5]];portConstraint=eastwest;" vertex="1" parent="31">
                    <mxGeometry y="60" width="210" height="30" as="geometry"/>
                </mxCell>
                <mxCell id="36" value="&lt;span style=&quot;color: rgb(204, 202, 194); font-family: &amp;quot;Cascadia Code&amp;quot;, &amp;quot;Fira Code&amp;quot;, &amp;quot;Hack Nerd Font Mono&amp;quot;; font-size: 14px;&quot;&gt;linha            &lt;/span&gt;" style="shape=partialRectangle;html=1;whiteSpace=wrap;connectable=0;fillColor=none;top=0;left=0;bottom=0;right=0;overflow=hidden;align=left;" vertex="1" parent="35">
                    <mxGeometry width="128" height="30" as="geometry">
                        <mxRectangle width="128" height="30" as="alternateBounds"/>
                    </mxGeometry>
                </mxCell>
                <mxCell id="37" value="int64" style="shape=partialRectangle;html=1;whiteSpace=wrap;connectable=0;fillColor=none;top=0;left=0;bottom=0;right=0;align=left;spacingLeft=6;overflow=hidden;" vertex="1" parent="35">
                    <mxGeometry x="128" width="82" height="30" as="geometry">
                        <mxRectangle width="82" height="30" as="alternateBounds"/>
                    </mxGeometry>
                </mxCell>
                <mxCell id="38" value="" style="shape=tableRow;horizontal=0;startSize=0;swimlaneHead=0;swimlaneBody=0;top=0;left=0;bottom=0;right=0;collapsible=0;dropTarget=0;fillColor=none;points=[[0,0.5],[1,0.5]];portConstraint=eastwest;" vertex="1" parent="31">
                    <mxGeometry y="90" width="210" height="30" as="geometry"/>
                </mxCell>
                <mxCell id="39" value="&lt;span style=&quot;color: rgb(204, 202, 194); font-family: &amp;quot;Cascadia Code&amp;quot;, &amp;quot;Fira Code&amp;quot;, &amp;quot;Hack Nerd Font Mono&amp;quot;; font-size: 14px;&quot;&gt;turno            &lt;/span&gt;" style="shape=partialRectangle;html=1;whiteSpace=wrap;connectable=0;fillColor=none;top=0;left=0;bottom=0;right=0;overflow=hidden;align=left;" vertex="1" parent="38">
                    <mxGeometry width="128" height="30" as="geometry">
                        <mxRectangle width="128" height="30" as="alternateBounds"/>
                    </mxGeometry>
                </mxCell>
                <mxCell id="40" value="string" style="shape=partialRectangle;html=1;whiteSpace=wrap;connectable=0;fillColor=none;top=0;left=0;bottom=0;right=0;align=left;spacingLeft=6;overflow=hidden;" vertex="1" parent="38">
                    <mxGeometry x="128" width="82" height="30" as="geometry">
                        <mxRectangle width="82" height="30" as="alternateBounds"/>
                    </mxGeometry>
                </mxCell>
                <mxCell id="92" style="shape=tableRow;horizontal=0;startSize=0;swimlaneHead=0;swimlaneBody=0;top=0;left=0;bottom=0;right=0;collapsible=0;dropTarget=0;fillColor=none;points=[[0,0.5],[1,0.5]];portConstraint=eastwest;" vertex="1" parent="31">
                    <mxGeometry y="120" width="210" height="30" as="geometry"/>
                </mxCell>
                <mxCell id="93" value="&lt;span style=&quot;color: rgb(204, 202, 194); font-family: &amp;quot;Cascadia Code&amp;quot;, &amp;quot;Fira Code&amp;quot;, &amp;quot;Hack Nerd Font Mono&amp;quot;; font-size: 14px;&quot;&gt;total_ciclos     &lt;/span&gt;" style="shape=partialRectangle;html=1;whiteSpace=wrap;connectable=0;fillColor=none;top=0;left=0;bottom=0;right=0;overflow=hidden;align=left;" vertex="1" parent="92">
                    <mxGeometry width="128" height="30" as="geometry">
                        <mxRectangle width="128" height="30" as="alternateBounds"/>
                    </mxGeometry>
                </mxCell>
                <mxCell id="94" value="float64" style="shape=partialRectangle;html=1;whiteSpace=wrap;connectable=0;fillColor=none;top=0;left=0;bottom=0;right=0;align=left;spacingLeft=6;overflow=hidden;" vertex="1" parent="92">
                    <mxGeometry x="128" width="82" height="30" as="geometry">
                        <mxRectangle width="82" height="30" as="alternateBounds"/>
                    </mxGeometry>
                </mxCell>
                <mxCell id="89" style="shape=tableRow;horizontal=0;startSize=0;swimlaneHead=0;swimlaneBody=0;top=0;left=0;bottom=0;right=0;collapsible=0;dropTarget=0;fillColor=none;points=[[0,0.5],[1,0.5]];portConstraint=eastwest;" vertex="1" parent="31">
                    <mxGeometry y="150" width="210" height="30" as="geometry"/>
                </mxCell>
                <mxCell id="90" value="&lt;span style=&quot;color: rgb(204, 202, 194); font-family: &amp;quot;Cascadia Code&amp;quot;, &amp;quot;Fira Code&amp;quot;, &amp;quot;Hack Nerd Font Mono&amp;quot;; font-size: 14px;&quot;&gt;total_produzido  &lt;/span&gt;" style="shape=partialRectangle;html=1;whiteSpace=wrap;connectable=0;fillColor=none;top=0;left=0;bottom=0;right=0;overflow=hidden;align=left;" vertex="1" parent="89">
                    <mxGeometry width="128" height="30" as="geometry">
                        <mxRectangle width="128" height="30" as="alternateBounds"/>
                    </mxGeometry>
                </mxCell>
                <mxCell id="91" value="float64" style="shape=partialRectangle;html=1;whiteSpace=wrap;connectable=0;fillColor=none;top=0;left=0;bottom=0;right=0;align=left;spacingLeft=6;overflow=hidden;" vertex="1" parent="89">
                    <mxGeometry x="128" width="82" height="30" as="geometry">
                        <mxRectangle width="82" height="30" as="alternateBounds"/>
                    </mxGeometry>
                </mxCell>
                <mxCell id="86" style="shape=tableRow;horizontal=0;startSize=0;swimlaneHead=0;swimlaneBody=0;top=0;left=0;bottom=0;right=0;collapsible=0;dropTarget=0;fillColor=none;points=[[0,0.5],[1,0.5]];portConstraint=eastwest;" vertex="1" parent="31">
                    <mxGeometry y="180" width="210" height="30" as="geometry"/>
                </mxCell>
                <mxCell id="87" value="&lt;span style=&quot;color: rgb(204, 202, 194); font-family: &amp;quot;Cascadia Code&amp;quot;, &amp;quot;Fira Code&amp;quot;, &amp;quot;Hack Nerd Font Mono&amp;quot;; font-size: 14px;&quot;&gt;data_registro    &lt;/span&gt;" style="shape=partialRectangle;html=1;whiteSpace=wrap;connectable=0;fillColor=none;top=0;left=0;bottom=0;right=0;overflow=hidden;align=left;" vertex="1" parent="86">
                    <mxGeometry width="128" height="30" as="geometry">
                        <mxRectangle width="128" height="30" as="alternateBounds"/>
                    </mxGeometry>
                </mxCell>
                <mxCell id="88" value="string" style="shape=partialRectangle;html=1;whiteSpace=wrap;connectable=0;fillColor=none;top=0;left=0;bottom=0;right=0;align=left;spacingLeft=6;overflow=hidden;" vertex="1" parent="86">
                    <mxGeometry x="128" width="82" height="30" as="geometry">
                        <mxRectangle width="82" height="30" as="alternateBounds"/>
                    </mxGeometry>
                </mxCell>
                <mxCell id="83" style="shape=tableRow;horizontal=0;startSize=0;swimlaneHead=0;swimlaneBody=0;top=0;left=0;bottom=0;right=0;collapsible=0;dropTarget=0;fillColor=none;points=[[0,0.5],[1,0.5]];portConstraint=eastwest;" vertex="1" parent="31">
                    <mxGeometry y="210" width="210" height="30" as="geometry"/>
                </mxCell>
                <mxCell id="84" value="&lt;span style=&quot;color: rgb(204, 202, 194); font-family: &amp;quot;Cascadia Code&amp;quot;, &amp;quot;Fira Code&amp;quot;, &amp;quot;Hack Nerd Font Mono&amp;quot;; font-size: 14px;&quot;&gt;hora_registro    &lt;/span&gt;" style="shape=partialRectangle;html=1;whiteSpace=wrap;connectable=0;fillColor=none;top=0;left=0;bottom=0;right=0;overflow=hidden;align=left;" vertex="1" parent="83">
                    <mxGeometry width="128" height="30" as="geometry">
                        <mxRectangle width="128" height="30" as="alternateBounds"/>
                    </mxGeometry>
                </mxCell>
                <mxCell id="85" value="string" style="shape=partialRectangle;html=1;whiteSpace=wrap;connectable=0;fillColor=none;top=0;left=0;bottom=0;right=0;align=left;spacingLeft=6;overflow=hidden;" vertex="1" parent="83">
                    <mxGeometry x="128" width="82" height="30" as="geometry">
                        <mxRectangle width="82" height="30" as="alternateBounds"/>
                    </mxGeometry>
                </mxCell>
                <mxCell id="242" style="edgeStyle=none;html=1;exitX=0.5;exitY=1;exitDx=0;exitDy=0;entryX=0.5;entryY=0;entryDx=0;entryDy=0;fontSize=18;" edge="1" parent="1" source="101" target="201">
                    <mxGeometry relative="1" as="geometry"/>
                </mxCell>
                <mxCell id="101" value="&lt;b&gt;&lt;i&gt;&lt;font style=&quot;font-size: 17px;&quot;&gt;Clean Data&lt;/font&gt;&lt;/i&gt;&lt;/b&gt;" style="rounded=1;whiteSpace=wrap;html=1;fontSize=10;" vertex="1" parent="1">
                    <mxGeometry x="354" y="1200" width="120" height="60" as="geometry"/>
                </mxCell>
                <mxCell id="201" value="df_info" style="shape=table;startSize=30;container=1;collapsible=0;childLayout=tableLayout;fixedRows=1;rowLines=0;fontStyle=1;fontSize=18;" vertex="1" parent="1">
                    <mxGeometry x="294" y="1300" width="240" height="420" as="geometry"/>
                </mxCell>
                <mxCell id="202" value="" style="shape=tableRow;horizontal=0;startSize=0;swimlaneHead=0;swimlaneBody=0;top=0;left=0;bottom=0;right=0;collapsible=0;dropTarget=0;fillColor=none;points=[[0,0.5],[1,0.5]];portConstraint=eastwest;" vertex="1" parent="201">
                    <mxGeometry y="30" width="240" height="30" as="geometry"/>
                </mxCell>
                <mxCell id="203" value="&lt;span style=&quot;color: rgb(204, 202, 194); font-family: &amp;quot;Cascadia Code&amp;quot;, &amp;quot;Fira Code&amp;quot;, &amp;quot;Hack Nerd Font Mono&amp;quot;; font-size: 14px;&quot;&gt;fabrica                   &lt;/span&gt;" style="shape=partialRectangle;html=1;whiteSpace=wrap;connectable=0;fillColor=none;top=0;left=0;bottom=0;right=0;overflow=hidden;pointerEvents=1;align=left;" vertex="1" parent="202">
                    <mxGeometry width="147" height="30" as="geometry">
                        <mxRectangle width="147" height="30" as="alternateBounds"/>
                    </mxGeometry>
                </mxCell>
                <mxCell id="204" value="&lt;span style=&quot;color: rgb(204, 202, 194); font-family: &amp;quot;Cascadia Code&amp;quot;, &amp;quot;Fira Code&amp;quot;, &amp;quot;Hack Nerd Font Mono&amp;quot;; font-size: 14px;&quot;&gt;category      &lt;/span&gt;" style="shape=partialRectangle;html=1;whiteSpace=wrap;connectable=0;fillColor=none;top=0;left=0;bottom=0;right=0;align=left;spacingLeft=6;overflow=hidden;" vertex="1" parent="202">
                    <mxGeometry x="147" width="93" height="30" as="geometry">
                        <mxRectangle width="93" height="30" as="alternateBounds"/>
                    </mxGeometry>
                </mxCell>
                <mxCell id="205" value="" style="shape=tableRow;horizontal=0;startSize=0;swimlaneHead=0;swimlaneBody=0;top=0;left=0;bottom=0;right=0;collapsible=0;dropTarget=0;fillColor=none;points=[[0,0.5],[1,0.5]];portConstraint=eastwest;" vertex="1" parent="201">
                    <mxGeometry y="60" width="240" height="30" as="geometry"/>
                </mxCell>
                <mxCell id="206" value="&lt;span style=&quot;color: rgb(204, 202, 194); font-family: &amp;quot;Cascadia Code&amp;quot;, &amp;quot;Fira Code&amp;quot;, &amp;quot;Hack Nerd Font Mono&amp;quot;; font-size: 14px;&quot;&gt;linha                     &lt;/span&gt;" style="shape=partialRectangle;html=1;whiteSpace=wrap;connectable=0;fillColor=none;top=0;left=0;bottom=0;right=0;overflow=hidden;align=left;" vertex="1" parent="205">
                    <mxGeometry width="147" height="30" as="geometry">
                        <mxRectangle width="147" height="30" as="alternateBounds"/>
                    </mxGeometry>
                </mxCell>
                <mxCell id="207" value="&lt;span style=&quot;color: rgb(204, 202, 194); font-family: &amp;quot;Cascadia Code&amp;quot;, &amp;quot;Fira Code&amp;quot;, &amp;quot;Hack Nerd Font Mono&amp;quot;; font-size: 14px;&quot;&gt;category&lt;/span&gt;" style="shape=partialRectangle;html=1;whiteSpace=wrap;connectable=0;fillColor=none;top=0;left=0;bottom=0;right=0;align=left;spacingLeft=6;overflow=hidden;" vertex="1" parent="205">
                    <mxGeometry x="147" width="93" height="30" as="geometry">
                        <mxRectangle width="93" height="30" as="alternateBounds"/>
                    </mxGeometry>
                </mxCell>
                <mxCell id="208" value="" style="shape=tableRow;horizontal=0;startSize=0;swimlaneHead=0;swimlaneBody=0;top=0;left=0;bottom=0;right=0;collapsible=0;dropTarget=0;fillColor=none;points=[[0,0.5],[1,0.5]];portConstraint=eastwest;" vertex="1" parent="201">
                    <mxGeometry y="90" width="240" height="30" as="geometry"/>
                </mxCell>
                <mxCell id="209" value="&lt;span style=&quot;color: rgb(204, 202, 194); font-family: &amp;quot;Cascadia Code&amp;quot;, &amp;quot;Fira Code&amp;quot;, &amp;quot;Hack Nerd Font Mono&amp;quot;; font-size: 14px;&quot;&gt;maquina_id                &lt;/span&gt;" style="shape=partialRectangle;html=1;whiteSpace=wrap;connectable=0;fillColor=none;top=0;left=0;bottom=0;right=0;overflow=hidden;align=left;" vertex="1" parent="208">
                    <mxGeometry width="147" height="30" as="geometry">
                        <mxRectangle width="147" height="30" as="alternateBounds"/>
                    </mxGeometry>
                </mxCell>
                <mxCell id="210" value="&lt;span style=&quot;color: rgb(204, 202, 194); font-family: &amp;quot;Cascadia Code&amp;quot;, &amp;quot;Fira Code&amp;quot;, &amp;quot;Hack Nerd Font Mono&amp;quot;; font-size: 14px;&quot;&gt;category      &lt;/span&gt;" style="shape=partialRectangle;html=1;whiteSpace=wrap;connectable=0;fillColor=none;top=0;left=0;bottom=0;right=0;align=left;spacingLeft=6;overflow=hidden;" vertex="1" parent="208">
                    <mxGeometry x="147" width="93" height="30" as="geometry">
                        <mxRectangle width="93" height="30" as="alternateBounds"/>
                    </mxGeometry>
                </mxCell>
                <mxCell id="211" style="shape=tableRow;horizontal=0;startSize=0;swimlaneHead=0;swimlaneBody=0;top=0;left=0;bottom=0;right=0;collapsible=0;dropTarget=0;fillColor=none;points=[[0,0.5],[1,0.5]];portConstraint=eastwest;" vertex="1" parent="201">
                    <mxGeometry y="120" width="240" height="30" as="geometry"/>
                </mxCell>
                <mxCell id="212" value="&lt;span style=&quot;color: rgb(204, 202, 194); font-family: &amp;quot;Cascadia Code&amp;quot;, &amp;quot;Fira Code&amp;quot;, &amp;quot;Hack Nerd Font Mono&amp;quot;; font-size: 14px;&quot;&gt;status                    &lt;/span&gt;" style="shape=partialRectangle;html=1;whiteSpace=wrap;connectable=0;fillColor=none;top=0;left=0;bottom=0;right=0;overflow=hidden;align=left;" vertex="1" parent="211">
                    <mxGeometry width="147" height="30" as="geometry">
                        <mxRectangle width="147" height="30" as="alternateBounds"/>
                    </mxGeometry>
                </mxCell>
                <mxCell id="213" value="&lt;span style=&quot;color: rgb(204, 202, 194); font-family: &amp;quot;Cascadia Code&amp;quot;, &amp;quot;Fira Code&amp;quot;, &amp;quot;Hack Nerd Font Mono&amp;quot;; font-size: 14px;&quot;&gt;object        &lt;/span&gt;" style="shape=partialRectangle;html=1;whiteSpace=wrap;connectable=0;fillColor=none;top=0;left=0;bottom=0;right=0;align=left;spacingLeft=6;overflow=hidden;" vertex="1" parent="211">
                    <mxGeometry x="147" width="93" height="30" as="geometry">
                        <mxRectangle width="93" height="30" as="alternateBounds"/>
                    </mxGeometry>
                </mxCell>
                <mxCell id="214" style="shape=tableRow;horizontal=0;startSize=0;swimlaneHead=0;swimlaneBody=0;top=0;left=0;bottom=0;right=0;collapsible=0;dropTarget=0;fillColor=none;points=[[0,0.5],[1,0.5]];portConstraint=eastwest;" vertex="1" parent="201">
                    <mxGeometry y="150" width="240" height="30" as="geometry"/>
                </mxCell>
                <mxCell id="215" value="&lt;span style=&quot;color: rgb(204, 202, 194); font-family: &amp;quot;Cascadia Code&amp;quot;, &amp;quot;Fira Code&amp;quot;, &amp;quot;Hack Nerd Font Mono&amp;quot;; font-size: 14px;&quot;&gt;turno&lt;/span&gt;" style="shape=partialRectangle;html=1;whiteSpace=wrap;connectable=0;fillColor=none;top=0;left=0;bottom=0;right=0;overflow=hidden;align=left;" vertex="1" parent="214">
                    <mxGeometry width="147" height="30" as="geometry">
                        <mxRectangle width="147" height="30" as="alternateBounds"/>
                    </mxGeometry>
                </mxCell>
                <mxCell id="216" value="&lt;span style=&quot;color: rgb(204, 202, 194); font-family: &amp;quot;Cascadia Code&amp;quot;, &amp;quot;Fira Code&amp;quot;, &amp;quot;Hack Nerd Font Mono&amp;quot;; font-size: 14px;&quot;&gt;category&lt;/span&gt;" style="shape=partialRectangle;html=1;whiteSpace=wrap;connectable=0;fillColor=none;top=0;left=0;bottom=0;right=0;align=left;spacingLeft=6;overflow=hidden;" vertex="1" parent="214">
                    <mxGeometry x="147" width="93" height="30" as="geometry">
                        <mxRectangle width="93" height="30" as="alternateBounds"/>
                    </mxGeometry>
                </mxCell>
                <mxCell id="217" style="shape=tableRow;horizontal=0;startSize=0;swimlaneHead=0;swimlaneBody=0;top=0;left=0;bottom=0;right=0;collapsible=0;dropTarget=0;fillColor=none;points=[[0,0.5],[1,0.5]];portConstraint=eastwest;" vertex="1" parent="201">
                    <mxGeometry y="180" width="240" height="30" as="geometry"/>
                </mxCell>
                <mxCell id="218" value="&lt;span style=&quot;color: rgb(204, 202, 194); font-family: &amp;quot;Cascadia Code&amp;quot;, &amp;quot;Fira Code&amp;quot;, &amp;quot;Hack Nerd Font Mono&amp;quot;; font-size: 13px;&quot;&gt;tempo_registro_min        &lt;/span&gt;" style="shape=partialRectangle;html=1;whiteSpace=wrap;connectable=0;fillColor=none;top=0;left=0;bottom=0;right=0;overflow=hidden;align=left;fontSize=13;" vertex="1" parent="217">
                    <mxGeometry width="147" height="30" as="geometry">
                        <mxRectangle width="147" height="30" as="alternateBounds"/>
                    </mxGeometry>
                </mxCell>
                <mxCell id="219" value="&lt;span style=&quot;color: rgb(204, 202, 194); font-family: &amp;quot;Cascadia Code&amp;quot;, &amp;quot;Fira Code&amp;quot;, &amp;quot;Hack Nerd Font Mono&amp;quot;; font-size: 14px;&quot;&gt;int32&lt;/span&gt;" style="shape=partialRectangle;html=1;whiteSpace=wrap;connectable=0;fillColor=none;top=0;left=0;bottom=0;right=0;align=left;spacingLeft=6;overflow=hidden;" vertex="1" parent="217">
                    <mxGeometry x="147" width="93" height="30" as="geometry">
                        <mxRectangle width="93" height="30" as="alternateBounds"/>
                    </mxGeometry>
                </mxCell>
                <mxCell id="220" style="shape=tableRow;horizontal=0;startSize=0;swimlaneHead=0;swimlaneBody=0;top=0;left=0;bottom=0;right=0;collapsible=0;dropTarget=0;fillColor=none;points=[[0,0.5],[1,0.5]];portConstraint=eastwest;" vertex="1" parent="201">
                    <mxGeometry y="210" width="240" height="30" as="geometry"/>
                </mxCell>
                <mxCell id="221" value="&lt;span style=&quot;color: rgb(204, 202, 194); font-family: &amp;quot;Cascadia Code&amp;quot;, &amp;quot;Fira Code&amp;quot;, &amp;quot;Hack Nerd Font Mono&amp;quot;; font-size: 10px;&quot;&gt;contagem_total_produzido  &lt;/span&gt;" style="shape=partialRectangle;html=1;whiteSpace=wrap;connectable=0;fillColor=none;top=0;left=0;bottom=0;right=0;overflow=hidden;align=left;fontSize=10;" vertex="1" parent="220">
                    <mxGeometry width="147" height="30" as="geometry">
                        <mxRectangle width="147" height="30" as="alternateBounds"/>
                    </mxGeometry>
                </mxCell>
                <mxCell id="222" value="&lt;span style=&quot;color: rgb(204, 202, 194); font-family: &amp;quot;Cascadia Code&amp;quot;, &amp;quot;Fira Code&amp;quot;, &amp;quot;Hack Nerd Font Mono&amp;quot;; font-size: 14px;&quot;&gt;int32         &lt;/span&gt;" style="shape=partialRectangle;html=1;whiteSpace=wrap;connectable=0;fillColor=none;top=0;left=0;bottom=0;right=0;align=left;spacingLeft=6;overflow=hidden;" vertex="1" parent="220">
                    <mxGeometry x="147" width="93" height="30" as="geometry">
                        <mxRectangle width="93" height="30" as="alternateBounds"/>
                    </mxGeometry>
                </mxCell>
                <mxCell id="223" style="shape=tableRow;horizontal=0;startSize=0;swimlaneHead=0;swimlaneBody=0;top=0;left=0;bottom=0;right=0;collapsible=0;dropTarget=0;fillColor=none;points=[[0,0.5],[1,0.5]];portConstraint=eastwest;" vertex="1" parent="201">
                    <mxGeometry y="240" width="240" height="30" as="geometry"/>
                </mxCell>
                <mxCell id="224" value="&lt;span style=&quot;color: rgb(204, 202, 194); font-family: &amp;quot;Cascadia Code&amp;quot;, &amp;quot;Fira Code&amp;quot;, &amp;quot;Hack Nerd Font Mono&amp;quot;; font-size: 11px;&quot;&gt;contagem_total_ciclos     &lt;/span&gt;" style="shape=partialRectangle;html=1;whiteSpace=wrap;connectable=0;fillColor=none;top=0;left=0;bottom=0;right=0;overflow=hidden;align=left;fontSize=11;" vertex="1" parent="223">
                    <mxGeometry width="147" height="30" as="geometry">
                        <mxRectangle width="147" height="30" as="alternateBounds"/>
                    </mxGeometry>
                </mxCell>
                <mxCell id="225" value="&lt;span style=&quot;color: rgb(204, 202, 194); font-family: &amp;quot;Cascadia Code&amp;quot;, &amp;quot;Fira Code&amp;quot;, &amp;quot;Hack Nerd Font Mono&amp;quot;; font-size: 14px;&quot;&gt;int32         &lt;/span&gt;" style="shape=partialRectangle;html=1;whiteSpace=wrap;connectable=0;fillColor=none;top=0;left=0;bottom=0;right=0;align=left;spacingLeft=6;overflow=hidden;" vertex="1" parent="223">
                    <mxGeometry x="147" width="93" height="30" as="geometry">
                        <mxRectangle width="93" height="30" as="alternateBounds"/>
                    </mxGeometry>
                </mxCell>
                <mxCell id="226" style="shape=tableRow;horizontal=0;startSize=0;swimlaneHead=0;swimlaneBody=0;top=0;left=0;bottom=0;right=0;collapsible=0;dropTarget=0;fillColor=none;points=[[0,0.5],[1,0.5]];portConstraint=eastwest;" vertex="1" parent="201">
                    <mxGeometry y="270" width="240" height="30" as="geometry"/>
                </mxCell>
                <mxCell id="227" value="&lt;span style=&quot;color: rgb(204, 202, 194); font-family: &amp;quot;Cascadia Code&amp;quot;, &amp;quot;Fira Code&amp;quot;, &amp;quot;Hack Nerd Font Mono&amp;quot;; font-size: 13px;&quot;&gt;data_hora_registro&lt;/span&gt;" style="shape=partialRectangle;html=1;whiteSpace=wrap;connectable=0;fillColor=none;top=0;left=0;bottom=0;right=0;overflow=hidden;align=left;fontSize=13;" vertex="1" parent="226">
                    <mxGeometry width="147" height="30" as="geometry">
                        <mxRectangle width="147" height="30" as="alternateBounds"/>
                    </mxGeometry>
                </mxCell>
                <mxCell id="228" value="&lt;span style=&quot;color: rgb(204, 202, 194); font-family: &amp;quot;Cascadia Code&amp;quot;, &amp;quot;Fira Code&amp;quot;, &amp;quot;Hack Nerd Font Mono&amp;quot;; font-size: 14px;&quot;&gt;datetime64[ns]&lt;/span&gt;" style="shape=partialRectangle;html=1;whiteSpace=wrap;connectable=0;fillColor=none;top=0;left=0;bottom=0;right=0;align=left;spacingLeft=6;overflow=hidden;" vertex="1" parent="226">
                    <mxGeometry x="147" width="93" height="30" as="geometry">
                        <mxRectangle width="93" height="30" as="alternateBounds"/>
                    </mxGeometry>
                </mxCell>
                <mxCell id="238" style="shape=tableRow;horizontal=0;startSize=0;swimlaneHead=0;swimlaneBody=0;top=0;left=0;bottom=0;right=0;collapsible=0;dropTarget=0;fillColor=none;points=[[0,0.5],[1,0.5]];portConstraint=eastwest;" vertex="1" parent="201">
                    <mxGeometry y="300" width="240" height="30" as="geometry"/>
                </mxCell>
                <mxCell id="239" value="&lt;span style=&quot;color: rgb(204, 202, 194); font-family: &amp;quot;Cascadia Code&amp;quot;, &amp;quot;Fira Code&amp;quot;, &amp;quot;Hack Nerd Font Mono&amp;quot;; font-size: 14px;&quot;&gt;data_hora_final           &lt;/span&gt;" style="shape=partialRectangle;html=1;whiteSpace=wrap;connectable=0;fillColor=none;top=0;left=0;bottom=0;right=0;overflow=hidden;align=left;verticalAlign=middle;" vertex="1" parent="238">
                    <mxGeometry width="147" height="30" as="geometry">
                        <mxRectangle width="147" height="30" as="alternateBounds"/>
                    </mxGeometry>
                </mxCell>
                <mxCell id="240" value="&lt;span style=&quot;color: rgb(204, 202, 194); font-family: &amp;quot;Cascadia Code&amp;quot;, &amp;quot;Fira Code&amp;quot;, &amp;quot;Hack Nerd Font Mono&amp;quot;; font-size: 14px;&quot;&gt;datetime64[ns]&lt;/span&gt;" style="shape=partialRectangle;html=1;whiteSpace=wrap;connectable=0;fillColor=none;top=0;left=0;bottom=0;right=0;align=left;spacingLeft=6;overflow=hidden;" vertex="1" parent="238">
                    <mxGeometry x="147" width="93" height="30" as="geometry">
                        <mxRectangle width="93" height="30" as="alternateBounds"/>
                    </mxGeometry>
                </mxCell>
                <mxCell id="235" style="shape=tableRow;horizontal=0;startSize=0;swimlaneHead=0;swimlaneBody=0;top=0;left=0;bottom=0;right=0;collapsible=0;dropTarget=0;fillColor=none;points=[[0,0.5],[1,0.5]];portConstraint=eastwest;" vertex="1" parent="201">
                    <mxGeometry y="330" width="240" height="30" as="geometry"/>
                </mxCell>
                <mxCell id="236" value="&lt;span style=&quot;color: rgb(204, 202, 194); font-family: &amp;quot;Cascadia Code&amp;quot;, &amp;quot;Fira Code&amp;quot;, &amp;quot;Hack Nerd Font Mono&amp;quot;; font-size: 14px;&quot;&gt;sabado                    &lt;/span&gt;" style="shape=partialRectangle;html=1;whiteSpace=wrap;connectable=0;fillColor=none;top=0;left=0;bottom=0;right=0;overflow=hidden;align=left;" vertex="1" parent="235">
                    <mxGeometry width="147" height="30" as="geometry">
                        <mxRectangle width="147" height="30" as="alternateBounds"/>
                    </mxGeometry>
                </mxCell>
                <mxCell id="237" value="&lt;span style=&quot;color: rgb(204, 202, 194); font-family: &amp;quot;Cascadia Code&amp;quot;, &amp;quot;Fira Code&amp;quot;, &amp;quot;Hack Nerd Font Mono&amp;quot;; font-size: 14px;&quot;&gt;int32         &lt;/span&gt;" style="shape=partialRectangle;html=1;whiteSpace=wrap;connectable=0;fillColor=none;top=0;left=0;bottom=0;right=0;align=left;spacingLeft=6;overflow=hidden;" vertex="1" parent="235">
                    <mxGeometry x="147" width="93" height="30" as="geometry">
                        <mxRectangle width="93" height="30" as="alternateBounds"/>
                    </mxGeometry>
                </mxCell>
                <mxCell id="232" style="shape=tableRow;horizontal=0;startSize=0;swimlaneHead=0;swimlaneBody=0;top=0;left=0;bottom=0;right=0;collapsible=0;dropTarget=0;fillColor=none;points=[[0,0.5],[1,0.5]];portConstraint=eastwest;" vertex="1" parent="201">
                    <mxGeometry y="360" width="240" height="30" as="geometry"/>
                </mxCell>
                <mxCell id="233" value="&lt;span style=&quot;color: rgb(204, 202, 194); font-family: &amp;quot;Cascadia Code&amp;quot;, &amp;quot;Fira Code&amp;quot;, &amp;quot;Hack Nerd Font Mono&amp;quot;; font-size: 14px;&quot;&gt;domingo                   &lt;/span&gt;" style="shape=partialRectangle;html=1;whiteSpace=wrap;connectable=0;fillColor=none;top=0;left=0;bottom=0;right=0;overflow=hidden;align=left;" vertex="1" parent="232">
                    <mxGeometry width="147" height="30" as="geometry">
                        <mxRectangle width="147" height="30" as="alternateBounds"/>
                    </mxGeometry>
                </mxCell>
                <mxCell id="234" value="&lt;span style=&quot;color: rgb(204, 202, 194); font-family: &amp;quot;Cascadia Code&amp;quot;, &amp;quot;Fira Code&amp;quot;, &amp;quot;Hack Nerd Font Mono&amp;quot;; font-size: 14px;&quot;&gt;int32         &lt;/span&gt;" style="shape=partialRectangle;html=1;whiteSpace=wrap;connectable=0;fillColor=none;top=0;left=0;bottom=0;right=0;align=left;spacingLeft=6;overflow=hidden;" vertex="1" parent="232">
                    <mxGeometry x="147" width="93" height="30" as="geometry">
                        <mxRectangle width="93" height="30" as="alternateBounds"/>
                    </mxGeometry>
                </mxCell>
                <mxCell id="229" style="shape=tableRow;horizontal=0;startSize=0;swimlaneHead=0;swimlaneBody=0;top=0;left=0;bottom=0;right=0;collapsible=0;dropTarget=0;fillColor=none;points=[[0,0.5],[1,0.5]];portConstraint=eastwest;" vertex="1" parent="201">
                    <mxGeometry y="390" width="240" height="30" as="geometry"/>
                </mxCell>
                <mxCell id="230" value="&lt;span style=&quot;color: rgb(204, 202, 194); font-family: &amp;quot;Cascadia Code&amp;quot;, &amp;quot;Fira Code&amp;quot;, &amp;quot;Hack Nerd Font Mono&amp;quot;; font-size: 14px;&quot;&gt;feriado                   &lt;/span&gt;" style="shape=partialRectangle;html=1;whiteSpace=wrap;connectable=0;fillColor=none;top=0;left=0;bottom=0;right=0;overflow=hidden;align=left;" vertex="1" parent="229">
                    <mxGeometry width="147" height="30" as="geometry">
                        <mxRectangle width="147" height="30" as="alternateBounds"/>
                    </mxGeometry>
                </mxCell>
                <mxCell id="231" value="&lt;span style=&quot;color: rgb(204, 202, 194); font-family: &amp;quot;Cascadia Code&amp;quot;, &amp;quot;Fira Code&amp;quot;, &amp;quot;Hack Nerd Font Mono&amp;quot;; font-size: 14px;&quot;&gt;int32         &lt;/span&gt;" style="shape=partialRectangle;html=1;whiteSpace=wrap;connectable=0;fillColor=none;top=0;left=0;bottom=0;right=0;align=left;spacingLeft=6;overflow=hidden;" vertex="1" parent="229">
                    <mxGeometry x="147" width="93" height="30" as="geometry">
                        <mxRectangle width="93" height="30" as="alternateBounds"/>
                    </mxGeometry>
                </mxCell>
            </root>
        </mxGraphModel>
    </diagram>
</mxfile>